<?xml version="1.0" encoding="UTF-8"?>
<!-- Generated by Pixelmator Pro 3.7.1 -->
<svg width="4560" height="1348" viewBox="0 0 4560 1348" xmlns="http://www.w3.org/2000/svg">
    <g id="MJ026-Shape-copy">
        <filter id="filter1" x="0" y="0" width="4560" height="1348" filterUnits="userSpaceOnUse" primitiveUnits="userSpaceOnUse" color-interpolation-filters="sRGB">
            <feGaussianBlur stdDeviation="0"/>
            <feOffset dx="159.595879" dy="133.916844" result="offsetblur"/>
            <feFlood flood-color="#000000" flood-opacity="0.254633"/>
            <feComposite in2="offsetblur" operator="in"/>
            <feMerge>
                <feMergeNode/>
                <feMergeNode in="SourceGraphic"/>
            </feMerge>
        </filter>
        <path id="MJ" fill="#ff5141" fill-rule="evenodd" stroke="none" filter="url(#filter1)" d="M 1662.212158 72.658447 L 1902.742554 72.658447 L 1902.742554 1034.819092 L 1662.212158 1034.819092 Z M 1421.681763 1034.819092 L 1662.212158 1034.819092 L 1662.212158 1275.359375 L 1421.681763 1275.359375 Z M 805.924255 72.658447 L 1046.454346 72.658447 L 1046.454346 313.19873 L 805.924255 313.19873 Z M 84.333336 72.658447 L 565.39386 72.658447 L 565.39386 313.19873 L 324.863586 313.19873 L 324.863586 1275.359375 L 84.333336 1275.359375 Z M 805.924255 1275.359375 L 565.39386 1275.359375 L 565.39386 313.19873 L 805.924255 313.19873 Z M 1046.454346 313.19873 L 1286.984741 313.19873 L 1286.984741 1275.359375 L 1046.454346 1275.359375 Z"/>
        <filter id="filter2" x="0" y="0" width="4560" height="1348" filterUnits="userSpaceOnUse" primitiveUnits="userSpaceOnUse" color-interpolation-filters="sRGB">
            <feGaussianBlur stdDeviation="0"/>
            <feOffset dx="159.595879" dy="133.916844" result="offsetblur"/>
            <feFlood flood-color="#000000" flood-opacity="0.150164"/>
            <feComposite in2="offsetblur" operator="in"/>
            <feMerge>
                <feMergeNode/>
                <feMergeNode in="SourceGraphic"/>
            </feMerge>
        </filter>
        <path id="026" fill="#ffffff" fill-rule="evenodd" stroke="none" filter="url(#filter2)" d="M 3993.689453 553.738525 L 4474.75 553.738525 L 4474.75 1275.359375 L 3753.15918 1275.359375 L 3753.15918 72.658447 L 4474.75 72.658447 L 4474.75 313.19873 L 3993.689453 313.19873 Z M 3993.689453 1034.819092 L 4234.219238 1034.819092 L 4234.219238 794.278809 L 3993.689453 794.278809 Z M 2896.871338 553.738525 L 3377.931885 553.738525 L 3377.931885 313.19873 L 2896.871338 313.19873 L 2896.871338 72.658447 L 3618.462158 72.658447 L 3618.462158 794.278809 L 3137.401367 794.278809 L 3137.401367 1034.819092 L 3618.462158 1034.819092 L 3618.462158 1275.359375 L 2896.871338 1275.359375 Z M 2521.643799 1034.819092 L 2521.643799 313.19873 L 2281.11377 313.19873 L 2281.11377 1034.819092 Z M 2040.583374 72.658447 L 2762.174316 72.658447 L 2762.174316 1275.359375 L 2040.583374 1275.359375 Z"/>
    </g>
</svg>
