<?xml version="1.0" encoding="UTF-8"?>
<!-- Generated by Pixelmator Pro 3.7.1 -->
<svg width="32" height="32" viewBox="0 0 32 32" xmlns="http://www.w3.org/2000/svg">
    <path id="Circle" fill="#517db8" fill-rule="evenodd" stroke="none" d="M 32 16 C 32 7.163445 24.836555 0 16 0 C 7.163444 0 0 7.163445 0 16 C 0 24.836555 7.163444 32 16 32 C 24.836555 32 32 24.836555 32 16 Z"/>
    <g id="MJ026-Shape">
        <path id="MJ" fill="#ff634d" fill-rule="evenodd" stroke="none" d="M 12.406637 13 L 13.825715 13 L 13.825715 18.676306 L 12.406637 18.676306 Z M 10.98756 18.676306 L 12.406637 18.676306 L 12.406637 20.095383 L 10.98756 20.095383 Z M 7.354725 13 L 8.7738 13 L 8.7738 14.419077 L 7.354725 14.419077 Z M 3.097495 13 L 5.935647 13 L 5.935647 14.419077 L 4.516571 14.419077 L 4.516571 20.095383 L 3.097495 20.095383 Z M 7.354725 20.095383 L 5.935647 20.095383 L 5.935647 14.419077 L 7.354725 14.419077 Z M 8.7738 14.419077 L 10.192878 14.419077 L 10.192878 20.095383 L 8.7738 20.095383 Z"/>
        <path id="026" fill="#ffffff" fill-rule="evenodd" stroke="none" d="M 26.161848 15.838152 L 29 15.838152 L 29 20.095383 L 24.742771 20.095383 L 24.742771 13 L 29 13 L 29 14.419077 L 26.161848 14.419077 Z M 26.161848 18.676306 L 27.580923 18.676306 L 27.580923 17.257229 L 26.161848 17.257229 Z M 19.690859 15.838152 L 22.529011 15.838152 L 22.529011 14.419077 L 19.690859 14.419077 L 19.690859 13 L 23.948088 13 L 23.948088 17.257229 L 21.109934 17.257229 L 21.109934 18.676306 L 23.948088 18.676306 L 23.948088 20.095383 L 19.690859 20.095383 Z M 17.477098 18.676306 L 17.477098 14.419077 L 16.058023 14.419077 L 16.058023 18.676306 Z M 14.638946 13 L 18.896175 13 L 18.896175 20.095383 L 14.638946 20.095383 Z"/>
    </g>
</svg>
