<?xml version="1.0" encoding="UTF-8"?>
<!-- Generated by Pixelmator Pro 3.7.1 -->
<svg width="850" height="259" viewBox="0 0 850 259" xmlns="http://www.w3.org/2000/svg">
    <g id="MJ026-Shape-copy">
        <filter id="filter1" x="0" y="0" width="850" height="259" filterUnits="userSpaceOnUse" primitiveUnits="userSpaceOnUse" color-interpolation-filters="sRGB">
            <feGaussianBlur stdDeviation="0"/>
            <feOffset dx="29.419443" dy="24.685843" result="offsetblur"/>
            <feFlood flood-color="#000000" flood-opacity="0.147638"/>
            <feComposite in2="offsetblur" operator="in"/>
            <feMerge>
                <feMergeNode/>
                <feMergeNode in="SourceGraphic"/>
            </feMerge>
        </filter>
        <path id="MJ" fill="#ff5141" fill-rule="evenodd" stroke="none" filter="url(#filter1)" d="M 311.200928 18.818192 L 355.540527 18.818192 L 355.540527 196.176468 L 311.200928 196.176468 Z M 266.861359 196.176468 L 311.200928 196.176468 L 311.200928 240.516052 L 266.861359 240.516052 Z M 153.352051 18.818192 L 197.691605 18.818192 L 197.691605 63.157791 L 153.352051 63.157791 Z M 20.333334 18.818192 L 109.012466 18.818192 L 109.012466 63.157791 L 64.672897 63.157791 L 64.672897 240.516052 L 20.333334 240.516052 Z M 153.352051 240.516052 L 109.012466 240.516052 L 109.012466 63.157791 L 153.352051 63.157791 Z M 197.691605 63.157791 L 242.031189 63.157791 L 242.031189 240.516052 L 197.691605 240.516052 Z"/>
        <filter id="filter2" x="0" y="0" width="850" height="259" filterUnits="userSpaceOnUse" primitiveUnits="userSpaceOnUse" color-interpolation-filters="sRGB">
            <feGaussianBlur stdDeviation="0"/>
            <feOffset dx="29.109689" dy="24.425929" result="offsetblur"/>
            <feFlood flood-color="#000000" flood-opacity="0.153579"/>
            <feComposite in2="offsetblur" operator="in"/>
            <feMerge>
                <feMergeNode/>
                <feMergeNode in="SourceGraphic"/>
            </feMerge>
        </filter>
        <path id="026" fill="#ffffff" fill-rule="evenodd" stroke="none" filter="url(#filter2)" d="M 740.98761 107.497284 L 829.666687 107.497284 L 829.666687 240.516052 L 696.64801 240.516052 L 696.64801 18.818192 L 829.666687 18.818192 L 829.666687 63.157791 L 740.98761 63.157791 Z M 740.98761 196.176468 L 785.327087 196.176468 L 785.327087 151.836884 L 740.98761 151.836884 Z M 538.799133 107.497284 L 627.47821 107.497284 L 627.47821 63.157791 L 538.799133 63.157791 L 538.799133 18.818192 L 671.81781 18.818192 L 671.81781 151.836884 L 583.138672 151.836884 L 583.138672 196.176468 L 671.81781 196.176468 L 671.81781 240.516052 L 538.799133 240.516052 Z M 469.629364 196.176468 L 469.629364 63.157791 L 425.289825 63.157791 L 425.289825 196.176468 Z M 380.950226 18.818192 L 513.968933 18.818192 L 513.968933 240.516052 L 380.950226 240.516052 Z"/>
    </g>
</svg>
