<?xml version="1.0" encoding="UTF-8"?>
<!-- Generated by Pixelmator Pro 3.7.1 -->
<svg width="2194" height="651" viewBox="0 0 2194 651" xmlns="http://www.w3.org/2000/svg">
    <g id="MJ026-Shape-copy">
        <filter id="filter1" x="0" y="0" width="2194" height="651" filterUnits="userSpaceOnUse" primitiveUnits="userSpaceOnUse" color-interpolation-filters="sRGB">
            <feGaussianBlur stdDeviation="0"/>
            <feOffset dx="76.604444" dy="64.278761" result="offsetblur"/>
            <feFlood flood-color="#000000" flood-opacity="0.203307"/>
            <feComposite in2="offsetblur" operator="in"/>
            <feMerge>
                <feMergeNode/>
                <feMergeNode in="SourceGraphic"/>
            </feMerge>
        </filter>
        <path id="MJ" fill="#ff634d" fill-rule="evenodd" stroke="none" filter="url(#filter1)" d="M 800.381836 37.727295 L 915.836426 37.727295 L 915.836426 499.54541 L 800.381836 499.54541 Z M 684.927246 499.54541 L 800.381836 499.54541 L 800.381836 615 L 684.927246 615 Z M 389.363647 37.727295 L 504.818115 37.727295 L 504.818115 153.181885 L 389.363647 153.181885 Z M 43 37.727295 L 273.909058 37.727295 L 273.909058 153.181885 L 158.454529 153.181885 L 158.454529 615 L 43 615 Z M 389.363647 615 L 273.909058 615 L 273.909058 153.181885 L 389.363647 153.181885 Z M 504.818115 153.181885 L 620.272705 153.181885 L 620.272705 615 L 504.818115 615 Z"/>
        <filter id="filter2" x="0" y="0" width="2194" height="651" filterUnits="userSpaceOnUse" primitiveUnits="userSpaceOnUse" color-interpolation-filters="sRGB">
            <feGaussianBlur stdDeviation="0"/>
            <feOffset dx="76.604444" dy="64.278761" result="offsetblur"/>
            <feFlood flood-color="#000000" flood-opacity="0.203307"/>
            <feComposite in2="offsetblur" operator="in"/>
            <feMerge>
                <feMergeNode/>
                <feMergeNode in="SourceGraphic"/>
            </feMerge>
        </filter>
        <path id="026" fill="#ffffff" fill-rule="evenodd" stroke="none" filter="url(#filter2)" d="M 1919.490967 268.63623 L 2150.399902 268.63623 L 2150.399902 615 L 1804.036377 615 L 1804.036377 37.727295 L 2150.399902 37.727295 L 2150.399902 153.181885 L 1919.490967 153.181885 Z M 1919.490967 499.54541 L 2034.945313 499.54541 L 2034.945313 384.09082 L 1919.490967 384.09082 Z M 1393.018188 268.63623 L 1623.927246 268.63623 L 1623.927246 153.181885 L 1393.018188 153.181885 L 1393.018188 37.727295 L 1739.381836 37.727295 L 1739.381836 384.09082 L 1508.472656 384.09082 L 1508.472656 499.54541 L 1739.381836 499.54541 L 1739.381836 615 L 1393.018188 615 Z M 1212.909058 499.54541 L 1212.909058 153.181885 L 1097.45459 153.181885 L 1097.45459 499.54541 Z M 982 37.727295 L 1328.363647 37.727295 L 1328.363647 615 L 982 615 Z"/>
    </g>
</svg>
