<?xml version="1.0" encoding="UTF-8"?>
<!-- Generated by Pixelmator Pro 3.7.1 -->
<svg width="1000" height="1000" viewBox="0 0 1000 1000" xmlns="http://www.w3.org/2000/svg">
    <path id="Circle" fill="#517db8" fill-rule="evenodd" stroke="none" d="M 1000 500 C 1000 223.857605 776.142395 0 500 0 C 223.85762 0 0 223.857605 0 500 C 0 776.142395 223.85762 1000 500 1000 C 776.142395 1000 1000 776.142395 1000 500 Z"/>
    <g id="MJ026-Shape">
        <filter id="filter1" x="0" y="0" width="1000" height="1000" filterUnits="userSpaceOnUse" primitiveUnits="userSpaceOnUse" color-interpolation-filters="sRGB">
            <feGaussianBlur stdDeviation="0"/>
            <feOffset dx="29.419443" dy="24.685843" result="offsetblur"/>
            <feFlood flood-color="#000000" flood-opacity="0.246948"/>
            <feComposite in2="offsetblur" operator="in"/>
            <feMerge>
                <feMergeNode/>
                <feMergeNode in="SourceGraphic"/>
            </feMerge>
        </filter>
        <path id="MJ" fill="#ff5141" fill-rule="evenodd" stroke="none" filter="url(#filter1)" d="M 386.200928 405.818176 L 430.540527 405.818176 L 430.540527 583.176453 L 386.200928 583.176453 Z M 341.861359 583.176453 L 386.200928 583.176453 L 386.200928 627.516052 L 341.861359 627.516052 Z M 228.352051 405.818176 L 272.691589 405.818176 L 272.691589 450.157776 L 228.352051 450.157776 Z M 95.333336 405.818176 L 184.012466 405.818176 L 184.012466 450.157776 L 139.672897 450.157776 L 139.672897 627.516052 L 95.333336 627.516052 Z M 228.352051 627.516052 L 184.012466 627.516052 L 184.012466 450.157776 L 228.352051 450.157776 Z M 272.691589 450.157776 L 317.031189 450.157776 L 317.031189 627.516052 L 272.691589 627.516052 Z"/>
        <filter id="filter2" x="0" y="0" width="1000" height="1000" filterUnits="userSpaceOnUse" primitiveUnits="userSpaceOnUse" color-interpolation-filters="sRGB">
            <feGaussianBlur stdDeviation="0"/>
            <feOffset dx="29.419443" dy="24.685843" result="offsetblur"/>
            <feFlood flood-color="#000000" flood-opacity="0.254615"/>
            <feComposite in2="offsetblur" operator="in"/>
            <feMerge>
                <feMergeNode/>
                <feMergeNode in="SourceGraphic"/>
            </feMerge>
        </filter>
        <path id="026" fill="#ffffff" fill-rule="evenodd" stroke="none" filter="url(#filter2)" d="M 815.98761 494.497284 L 904.666687 494.497284 L 904.666687 627.516052 L 771.64801 627.516052 L 771.64801 405.818176 L 904.666687 405.818176 L 904.666687 450.157776 L 815.98761 450.157776 Z M 815.98761 583.176453 L 860.327087 583.176453 L 860.327087 538.836914 L 815.98761 538.836914 Z M 613.799133 494.497284 L 702.47821 494.497284 L 702.47821 450.157776 L 613.799133 450.157776 L 613.799133 405.818176 L 746.81781 405.818176 L 746.81781 538.836914 L 658.138672 538.836914 L 658.138672 583.176453 L 746.81781 583.176453 L 746.81781 627.516052 L 613.799133 627.516052 Z M 544.629333 583.176453 L 544.629333 450.157776 L 500.289825 450.157776 L 500.289825 583.176453 Z M 455.950226 405.818176 L 588.968933 405.818176 L 588.968933 627.516052 L 455.950226 627.516052 Z"/>
    </g>
</svg>
